<?xml version="1.0" encoding="utf-8"?>
<!-- Generator: Adobe Illustrator 16.0.0, SVG Export Plug-In . SVG Version: 6.00 Build 0)  -->
<!DOCTYPE svg PUBLIC "-//W3C//DTD SVG 1.1//EN" "http://www.w3.org/Graphics/SVG/1.1/DTD/svg11.dtd">
<svg version="1.1" id="Layer_1" xmlns="http://www.w3.org/2000/svg" xmlns:xlink="http://www.w3.org/1999/xlink" x="0px" y="0px"
	 width="450px" height="122.8px" viewBox="0 0 450 122.8" enable-background="new 0 0 450 122.8" xml:space="preserve">
<g id="Layer_1_1_">
	<g>
		<path d="M132.5,9.9l13-3l13-1.5l10-1.1H179h65.5l35.047,1.182c0,0,35.203,33.918,49.453,43.918c10.5,5.9,78,16,83,16.9
			c11.7,2.199,19.8,0.6,24,3.6c5,3.5,5,2.9,5,2.9l5,41.5c0,1.4-3.6,3-5,3h-77c0,0,1.6,5.5-3,5.5s-196.1,0-198.5,0
			c-7,0-3.93-5.531-3.93-5.531l-68.066,0.125C81,115.4,83.499,90.3,83.499,88.9l5.328-27.5L91.5,43.9l14-12L132.5,9.9z"/>
	</g>
</g>
<g id="Layer_2" display="none">
	<g display="inline">
		<path fill="#F9E63A" d="M84.248,42.826c-4.75,6.25-2.75,12.65-2.75,12.65l80.9,0.5c0.4-16.9,1.6-47.9,20.841-53.366L130.49,3.677
			c0,0-5.492-1.353-14.242,6.648C108.906,17.263,98.743,25.839,84.248,42.826z M142.748,10.076c0,0,9.128,0.257,10.262,0.421
			c3.988,0.579,3.988,0.579,3.238,3.329c-0.316,1.158-4.113,30.36-4.25,31.25c-0.5,3.25-11.4,2.9-15.5,2.9s-47.25,0-47.25,0
			c-3.25-2.4,10.235-13.993,19-23.4c10.396-11.159,15.029-13.556,17.029-13.806C125.377,9.77,131.998,9.926,142.748,10.076z
			 M374.498,50.976c7,1.7,33.5,7.1,43.5,8.5c6.8,1,14.6,4.6,18.9,6.8c-3-3.399-7.4-5.9-14.4-7.8c-7.3-2.1-22-4-22-4
			s-18.8-2.8-31.3-6.1C369.798,49.176,371.198,50.176,374.498,50.976z M446.998,112.976c0,0,0.2-26.1-6.5-41c-0.2-0.5-0.5-1-0.8-1.6
			c-2.4-1.701-10.4-6.801-21.2-8.901c-13.1-2.6-37.3-6.6-45-8.5c-5.3-1.3-6.9-3.9-7.3-5.4c-1.8-0.5-3.4-1.1-4.7-1.6
			c-0.3-0.1-0.6-0.3-1-0.5c0,6.2-0.1,22.601-2.5,37.5c-2.4,14.8-8.5,28-8.5,28h-2c0,0,6-12.399,8.5-28c2.5-15.5,2.6-33.7,2.5-38.7
			c-12.4-8.1-41.5-37.3-52.5-37.3c-3.5,0-30.8-3.5-67.4-4l-0.1,108h-1.5l0.3-108c-19.1-0.3-68.4-2.4-74.3,3c-1.3,3-2.5,6.5-2.5,6.5
			s-0.1,0-0.2,0c-1.2,6.7-4.3,25.5-4.3,43c0,22.2-0.6,35.7-0.6,35.7l2.842,10.301c1.5,6.8,1.258,10.5,1.258,10.5h201.5
			c0,0,1.2-32.5,34-32.5c24.1,0,33,22.6,33,30s-0.5,11-0.5,11s11.3-0.6,15.5-2S446.998,112.976,446.998,112.976z M232.998,44.476
			c0,3.9-3.1,7-7,7h-48c-3.9,0-7-3.1-7-7l1.5-22.5c1.2-11,2.3-13,13-13l40.5-1c3.9,0,7,3.1,7,7V44.476z M251.998,52.476
			c-3.9,0-7-3.1-7-7l-1.5-31c0-3.9,1.6-6,5.5-6c0,0,46.4,3,46.5,3c9.3,0,53.5,40.5,53.5,40.5s1.9,3-2,3L251.998,52.476z
			 M162.398,54.076l-60.151,0.153c0,0,0,0-8.619,0.104c-7.493,0.141-10.63,1.143-12.88-2.257c-0.1,0.5-1.159,9.196-1.5,18.75
			c0.25,29.75-3.367,40.428,0.233,40.428l5.517,0.225c0,0-2-41,38.5-41c18.5,0,27.5,10.398,31.9,20.697
			c13.6,1.65-4.638-22.562,7-30.697C164.413,59.067,162.398,54.276,162.398,54.076z"/>
	</g>
</g>
</svg>
