<?xml version="1.0" encoding="utf-8"?>
<!-- Generator: Adobe Illustrator 16.0.0, SVG Export Plug-In . SVG Version: 6.00 Build 0)  -->
<!DOCTYPE svg PUBLIC "-//W3C//DTD SVG 1.1//EN" "http://www.w3.org/Graphics/SVG/1.1/DTD/svg11.dtd">
<svg version="1.1" id="Layer_2" xmlns="http://www.w3.org/2000/svg" xmlns:xlink="http://www.w3.org/1999/xlink" x="0px" y="0px"
	 width="450px" height="122.8px" viewBox="0 0 450 122.8" enable-background="new 0 0 450 122.8" xml:space="preserve">
<g id="Layer_1_1_">
	<rect x="72" y="94.05" fill="#353535" width="14" height="15.5"/>
	<g>
		<path fill="#F93535" d="M87.438,43.212c-4.75,6.25-2.75,12.65-2.75,12.65l80.9,0.5c0.4-16.9,1.6-47.9,20.841-53.366L133.68,4.064
			c0,0-5.492-1.354-14.242,6.647C112.096,17.649,101.933,26.227,87.438,43.212z M145.938,10.462c0,0,9.128,0.257,10.262,0.421
			c3.988,0.579,3.988,0.579,3.238,3.329c-0.316,1.158-4.113,30.36-4.25,31.25c-0.5,3.25-11.4,2.9-15.5,2.9s-47.25,0-47.25,0
			c-3.25-2.4,10.235-13.993,19-23.4c10.396-11.159,15.029-13.556,17.029-13.806C128.566,10.156,135.188,10.312,145.938,10.462z
			 M377.688,51.362c7,1.7,33.5,7.1,43.5,8.5c6.801,1,14.601,4.6,18.9,6.799c-3-3.398-7.4-5.899-14.4-7.799c-7.3-2.1-22-4-22-4
			s-18.8-2.8-31.3-6.1C372.987,49.562,374.388,50.562,377.688,51.362z M450.188,113.363c0,0,0.2-26.1-6.5-41
			c-0.199-0.5-0.5-1-0.8-1.6c-2.399-1.701-10.399-6.801-21.2-8.901c-13.1-2.6-37.3-6.6-45-8.5c-5.3-1.3-6.899-3.9-7.3-5.4
			c-1.8-0.5-3.399-1.1-4.7-1.6c-0.3-0.1-0.6-0.3-1-0.5c0,6.2-0.1,22.6-2.5,37.5c-2.399,14.799-8.5,28-8.5,28h-2c0,0,6-12.4,8.5-28
			c2.5-15.5,2.601-33.701,2.5-38.701c-12.399-8.1-41.5-37.3-52.5-37.3c-3.5,0-30.799-3.5-67.399-4l-0.101,108h-1.5l0.301-108
			c-19.1-0.3-68.4-2.4-74.3,3c-1.3,3-2.5,6.5-2.5,6.5s-0.1,0-0.2,0c-1.2,6.7-4.3,25.5-4.3,43c0,22.2-0.6,35.7-0.6,35.7l2.842,10.301
			c1.5,6.803,1.258,10.5,1.258,10.5h201.5c0,0,1.2-32.5,34-32.5c24.101,0,33,22.602,33,30c0,7.4-0.5,11-0.5,11s11.301-0.6,15.5-2
			C450.388,117.462,450.188,113.363,450.188,113.363z M236.188,44.862c0,3.9-3.1,7-7,7h-48c-3.9,0-7-3.1-7-7l1.5-22.5
			c1.2-11,2.3-13,13-13l40.5-1c3.9,0,7,3.1,7,7V44.862z M255.188,52.862c-3.899,0-7-3.1-7-7l-1.5-31c0-3.9,1.601-6,5.5-6
			c0,0,46.4,3,46.5,3c9.301,0,53.5,40.5,53.5,40.5s1.9,3-2,3L255.188,52.862z M165.587,54.462l-60.151,0.153c0,0,0,0-8.619,0.104
			c-7.493,0.141-10.63,1.144-12.88-2.257c-0.1,0.5-1.159,9.196-1.5,18.75c0.25,29.75-3.367,40.428,0.233,40.428l5.517,0.223
			c0,0-2-41,38.5-41c18.5,0,27.5,10.4,31.9,20.699c13.6,1.648-4.638-22.564,7-30.701C167.603,59.455,165.587,54.663,165.587,54.462z
			"/>
	</g>
	<path fill="#A7A9AC" d="M236,105.601c0-1-0.8-1.801-1.8-1.801h-67c-1,0-1.8,0.801-1.8,1.801l0,0c0,1,0.8,1.799,1.8,1.799h67
		C235.2,107.3,236,106.5,236,105.601L236,105.601z"/>
	<path fill="#A7A9AC" d="M182.5,60.8c0-2.8-2.2-5-5-5H177c-2.8,0-5,2.2-5,5l0,0c0,2.801,2.2,5,5,5h0.5
		C180.3,65.8,182.5,63.601,182.5,60.8L182.5,60.8z"/>
	<path fill="#A7A9AC" d="M262.5,61.3c0-2.8-2.2-5-5-5H257c-2.8,0-5,2.2-5,5l0,0c0,2.801,2.2,5,5,5h0.5
		C260.3,66.3,262.5,64.101,262.5,61.3L262.5,61.3z"/>
	<path fill="#F1F2F2" d="M185,60.8c0-1-0.2-1.8-0.4-1.8h-14.7c-0.2,0-0.4,0.8-0.4,1.8l0,0c0,1,0.2,1.801,0.4,1.801h14.7
		C184.8,62.601,185,61.8,185,60.8L185,60.8z"/>
	<path fill="#F1F2F2" d="M265,60.8c0-1-0.2-1.8-0.4-1.8H249.9c-0.2,0-0.4,0.8-0.4,1.8l0,0c0,1,0.2,1.801,0.4,1.801H264.6
		C264.8,62.601,265,61.8,265,60.8L265,60.8z"/>
</g>
<g id="Layer_2_1_">
	<g>
		<path fill="#5E5D5D" d="M411.129,82.398C425.419,88.55,431,103.943,431,109.8c0,7.4-0.5,11-0.5,11s10.634-0.25,14.834-1.65
			c5.667-1.332,4.666-5.85,4.666-5.85s0.584-16.232-2.965-30.9L411.129,82.398z M241.527,82.4l-0.027,28.9H240l0.08-28.9
			 M160.758,99.429l1.043,5.191c1.018,7.029,0.907,7.779,0.907,7.779L364,112.3c0,0,0.82-22.195,19.617-29.902L361.125,82.4
			c-2.4,14.801-8.625,28.9-8.625,28.9h-2c0,0,6.188-13.301,8.688-28.9H152.995c2.316,2.85,4.011,6.359,6.088,10.959L160.758,99.429z
			 M82.215,82.4c-0.548,17.75-2.756,29.25,0.348,29.25l5.771,0.334c0,0-0.793-17.459,9.697-29.582"/>
	</g>
</g>
<g id="Layer_3">
	<path opacity="0.7" fill="#E20535" enable-background="new    " d="M95.125,62.001c1.099,1.762,1.75,7.744-0.5,10.32l-12.339,0.49
		l0.622-12.351C82.908,60.462,91.375,59.365,95.125,62.001z"/>
</g>
</svg>
