<?xml version="1.0" encoding="utf-8"?>
<!-- Generator: Adobe Illustrator 16.0.0, SVG Export Plug-In . SVG Version: 6.00 Build 0)  -->
<!DOCTYPE svg PUBLIC "-//W3C//DTD SVG 1.1//EN" "http://www.w3.org/Graphics/SVG/1.1/DTD/svg11.dtd">
<svg version="1.1" id="Layer_1" xmlns="http://www.w3.org/2000/svg" xmlns:xlink="http://www.w3.org/1999/xlink" x="0px" y="0px"
	 width="450px" height="122.8px" viewBox="0 0 450 122.8" enable-background="new 0 0 450 122.8" xml:space="preserve">
<g id="Layer_1_1_">
	<rect x="72" y="94.05" fill="#353535" width="14" height="15.5"/>
	<g>
		<path fill="#F9E63A" d="M176.379,10.862c0,0,18.58,0.245,30.579,0.023c6.209-0.152,8.519,0.06,8.542,2.515
			c-0.28,1.683-13.092,31.519-14.667,35.833c-1.742,2.89-1.866,4.837-7.219,4.837c-5.354,0-96.74,0.199-96.74,0.199
			C86,54.445,107.722,36.64,119.167,27.233c13.574-11.159,17.665-15.293,20.276-15.543C139.574,10.69,160.124,11.384,176.379,10.862
			z M210.6,54.15c-2.433-0.083-3.6-1.833-2.266-5.417l12.5-32.667c1.5-4.5,2.205-5.73,5.75-5.412c0,0,48.166,1.087,57.038,1.331
			c5.628,1.165,33.375,35.33,33.375,35.33s5.753,6.835-1.132,7.736L210.6,54.15z M158.4,92.096l2.842,10.301
			c1.5,6.802,1.258,10.5,1.258,10.5H364c0,0,1.2-33.056,34-33.056c24.1,0,34.5,21.559,34.5,31.309c0,7.4-2,10.247-2,10.247
			s11.3-0.601,15.5-2s4-5.5,4-5.5s0.2-26.101-6.5-41c-0.2-0.5-0.5-1-0.8-1.601c-2.4-1.7-12.15-7.797-22.95-9.896
			c-13.1-2.599-11.851-1.975-22.812-3.619c-9.25-1.65-17.406-2.111-26.684-3.164c-15.73-2.24-11.985-1.707-20.505-2.717
			c-7.195-1.006-19.183-1.966-19.583-2.167c3.5,7.25,10.083,22.167,15.5,32.782c-2.4,14.801-5.825,29.027-5.825,29.027l-1.675-0.047
			c0,0,4.167-12.732,6.667-28.332C334,59.65,334,59.65,329,49.4c-18.75-14-34.25-38-44.858-43.872
			c-3.062-1.695-5.941-1.132-42.542-1.632h-1.3c-19.1-0.3-16.052,0.238-32.302-0.012C201.956,4.462,172,4.127,172,4.127
			s-27.478,0.652-29.855,0.902C134.796,5.804,130.6,9.247,130.5,9.247C116.771,20.609,110.375,24.9,92,43.275L87.75,48.9
			c-1.79,5.771-3.713,10.697-5.5,22.848c0.25,29.75-3.367,40.428,0.233,40.428L88,112.397c0,0-2-41,38.5-41
			C145,71.397,154,81.796,158.4,92.096"/>
	</g>
	<path fill="#A7A9AC" d="M241,68.099c0-2.799-2.2-5-5-5h-0.5c-2.8,0-5,2.201-5,5l0,0c0,2.801,2.2,5.001,5,5.001h0.5
		C238.8,73.1,241,70.9,241,68.099L241,68.099z"/>
	<path fill="#F1F2F2" d="M243.5,68.1c0-1-0.2-1.8-0.4-1.8H228.4c-0.2,0-0.4,0.8-0.4,1.8l0,0c0,1,0.2,1.8,0.4,1.8H243.1
		C243.3,69.9,243.5,69.1,243.5,68.1L243.5,68.1z"/>
</g>
<g id="Layer_2">
	<path fill="#666666" d="M152.682,82.621c6.019,10.44,10.762,15.553,12.718,30.276c46.1,0.503,195.1,0,195.1,0
		c5-21.497,10.413-25.967,19-29.653C382.395,82,187.835,82.125,152.682,82.621z"/>
	<path fill="#666666" d="M88,112.397c0-21.19,15.808-39.218,37-39.218s37.5,18.525,37.5,39.718l5.371,0.224
		c0-23.677-19.194-44.44-42.871-44.44s-42.871,19.194-42.871,42.87L88,112.397z"/>
	<path fill="#666666" d="M85.402,101.8c0,1.068,3.292,10.597,2.223,10.597l-4.63-0.155c-2.578,0.155-2.196-3.896-2.196-4.967
		l1.339-23.729c0-1.068,0.84-0.871,1.91-0.871l0,0c1.07,0,7.195-0.125,12.827,0L85.402,101.8z"/>
	<path fill="#666666" d="M420.287,82.621h26.396c0,0,3.536,18.279,3.315,26.93c-0.181,7.099,0.281,8.189-2.734,9.27
		c-3.015,1.081-14.766,3.075-16.766,2.578c0.326-3.992,0.779-8.275,0.779-8.275c0-18.381-14.899-33.279-33.279-33.279
		s-33.278,14.898-33.278,33.279h-4.5c0-20.865,16.913-37.779,37.778-37.779s37.779,16.914,37.779,37.779L420.287,82.621z"/>
</g>
<g id="Layer_3">
	<path fill="#A7A9AC" d="M334,105.6c0-1-1.91-1.8-4.298-1.8H169.699c-2.388,0-4.299,0.8-4.299,1.8l0,0c0,1,1.911,1.8,4.299,1.8
		h160.003C332.09,107.3,334,106.5,334,105.6L334,105.6z"/>
</g>
<path opacity="0.7" fill="#E20535" d="M82.458,70.374c1.292-1.099,6.37-1.011,7.855,1.651L93.25,83.65l-11.112-0.104
	C82.138,83.546,81.625,71.9,82.458,70.374z"/>
</svg>
