<?xml version="1.0" encoding="utf-8"?>
<!-- Generator: Adobe Illustrator 16.0.0, SVG Export Plug-In . SVG Version: 6.00 Build 0)  -->
<!DOCTYPE svg PUBLIC "-//W3C//DTD SVG 1.1//EN" "http://www.w3.org/Graphics/SVG/1.1/DTD/svg11.dtd">
<svg version="1.1" xmlns="http://www.w3.org/2000/svg" xmlns:xlink="http://www.w3.org/1999/xlink" x="0px" y="0px" width="530px"
	 height="245px" viewBox="-0.75 -123.15 530 245" enable-background="new -0.75 -123.15 530 245" xml:space="preserve">
<g id="Layer_1">
	<rect x="155" y="6.3" width="14.5" height="76"/>
	<rect y="89.8" fill="#353535" width="14" height="15.5"/>
	<g>
		<path fill="#F9E63A" d="M19.5,49.3c4.5,2.6,11,3,11,3L157,52.8c0.4-16.9,4.1-39.5,5.7-48.5H31c0,0-15.3,15-20.6,36.6
			C11.6,42.4,15,46.6,19.5,49.3z M39.5,11.3c0,0,104.2,0,105.5,0s3.5,1.8,3.5,3c0,1.2-3,28.1-3,29c0,0.9-1.9,5-6,5s-79,0-79,0
			c-3.6-0.1-8-6.3-6.5-4c1.5,2.3-16.3-22.2-16-31.5C38.1,11.8,38.7,11.3,39.5,11.3z M377.5,51.3c7,1.7,33.5,7.1,43.5,8.5
			c6.8,1,14.6,4.6,18.9,6.8c-3-3.399-7.4-5.9-14.4-7.8c-7.3-2.1-22-4-22-4s-18.8-2.8-31.3-6.1C372.8,49.5,374.2,50.5,377.5,51.3z
			 M450,113.3c0,0,0.2-26.1-6.5-41c-0.2-0.5-0.5-1-0.8-1.6C440.3,69,432.3,63.9,421.5,61.8c-13.1-2.6-37.3-6.6-45-8.5
			c-5.3-1.3-6.9-3.9-7.3-5.4c-1.8-0.5-3.4-1.1-4.7-1.6c-0.3-0.1-0.6-0.3-1-0.5c0,6.2-0.1,22.6-2.5,37.5c-2.4,14.8-8.5,28-8.5,28h-2
			c0,0,6-12.4,8.5-28c2.5-15.5,2.6-33.7,2.5-38.7C349.1,36.5,320,7.3,309,7.3c-3.5,0-30.8-3.5-67.4-4l-0.1,108H240l0.3-108
			c-19.1-0.3-68.4-2.4-74.3,3c-1.3,3-2.5,6.5-2.5,6.5s-0.1,0-0.2,0c-1.2,6.7-4.3,25.5-4.3,43c0,22.2,2.5,44.5,2.5,44.5l-0.4-0.2
			c1.5,6.8,1.4,12.2,1.4,12.2H364c0,0,1.2-32.5,34-32.5c24.1,0,33,22.6,33,30s-0.5,11-0.5,11s11.3-0.6,15.5-2S450,113.3,450,113.3z
			 M236,44.8c0,3.9-3.1,7-7,7h-48c-3.9,0-7-3.1-7-7l1.5-22.5c1.2-11,2.3-13,13-13l40.5-1c3.9,0,7,3.1,7,7V44.8z M255,52.8
			c-3.9,0-7-3.1-7-7l-1.5-31c0-3.9,1.6-6,5.5-6c0,0,46.4,3,46.5,3c9.3,0,53.5,40.5,53.5,40.5s1.9,3-2,3L255,52.8z M157,54.8
			L30.5,54.3c0,0-6.8-0.4-12-3c-4.9-2.5-7.8-6.3-8.7-7.6c-0.1,0.5-0.2,1-0.3,1.6c-4.1,23.901,0.4,63.5,4,63.5l74.5,3
			c0,0-2-41,38.5-41c18.5,0,27.5,10.4,31.9,20.699c-0.6-8.199-1.4-22-1.4-36.201C157,55.1,157,55,157,54.8z"/>
	</g>
	<path fill="#A7A9AC" d="M236,105.6c0-1-0.8-1.8-1.8-1.8h-67c-1,0-1.8,0.8-1.8,1.8l0,0c0,1,0.8,1.8,1.8,1.8h67
		C235.2,107.3,236,106.5,236,105.6L236,105.6z"/>
	<path fill="#A7A9AC" d="M347.5,105.6c0-1-1.1-1.8-2.6-1.8H247c-1.4,0-2.6,0.8-2.6,1.8l0,0c0,1,1.1,1.8,2.6,1.8h97.9
		C346.4,107.3,347.5,106.5,347.5,105.6L347.5,105.6z"/>
	<path fill="#A7A9AC" d="M182.5,60.8c0-2.8-2.2-5-5-5H177c-2.8,0-5,2.2-5,5l0,0c0,2.8,2.2,5,5,5h0.5
		C180.3,65.8,182.5,63.6,182.5,60.8L182.5,60.8z"/>
	<path fill="#A7A9AC" d="M262.5,61.3c0-2.8-2.2-5-5-5H257c-2.8,0-5,2.2-5,5l0,0c0,2.8,2.2,5,5,5h0.5
		C260.3,66.3,262.5,64.1,262.5,61.3L262.5,61.3z"/>
	<path fill="#F1F2F2" d="M185,60.8c0-1-0.2-1.8-0.4-1.8h-14.7c-0.2,0-0.4,0.8-0.4,1.8l0,0c0,1,0.2,1.8,0.4,1.8h14.7
		C184.8,62.6,185,61.8,185,60.8L185,60.8z"/>
	<path fill="#F1F2F2" d="M265,60.8c0-1-0.2-1.8-0.4-1.8H249.9c-0.2,0-0.4,0.8-0.4,1.8l0,0c0,1,0.2,1.8,0.4,1.8H264.6
		C264.8,62.6,265,61.8,265,60.8L265,60.8z"/>
</g>
<g id="Layer_2">
	<g opacity="0.8">
		<g>
			<path fill="#EBA123" d="M115.757-100.2c0,2.2-1.8,4-4,4H98.742c-2.2,0-4-1.8-4-4v-12.893c0-2.2,1.8-4,4-4h13.016c2.2,0,4,1.8,4,4
				V-100.2z"/>
		</g>
	</g>
	<g opacity="0.8">
		<g>
			<path fill="#EBA123" d="M107.738-100.2c0,2.2-1,4-2.223,4c-1.222,0-2.222-1.8-2.222-4v-12.893c0-2.2,1-4,2.222-4
				c1.223,0,2.223,1.8,2.223,4V-100.2z"/>
		</g>
	</g>
	<g>
		<g>
			<path fill="#F8EEDE" d="M119.678-100.2c0,2.2-1.8,4-4,4h-21.46c-2.2,0-4-1.8-4-4v-0.282c0-2.2,1.8-4,4-4h21.46c2.2,0,4,1.8,4,4
				V-100.2z"/>
		</g>
	</g>
	<g>
		<g>
			<path fill="#EDECED" d="M123.442-98.816c0,1.438-1.8,2.616-4,2.616H89.221c-2.2,0-4-1.177-4-2.616c0-1.439,1.8-2.616,4-2.616
				h30.221C121.642-101.432,123.442-100.255,123.442-98.816z"/>
		</g>
	</g>
	<path fill="#494A49" d="M160.411,75.211c0,0-39.042,0.761-23.411,4.62c30.5,3.095,22.5,32.509,22.5,32.509L364,112.3
		c3.195-19.071,16.687-30.202,35.315-29.475C420.5,83.653,431.937,95.369,430.5,120.8l64.027-8.51V68.934L160.411,75.211z"/>
	<g>
		<path fill="none" stroke="#5D5F5D" stroke-width="9" stroke-miterlimit="10" d="M375.434,85.166
			c-9.443,6.898-15.817,17.835-16.476,30.426"/>
	</g>
	<path fill="#0A81C4" d="M523.887,33.169c0,26.211-12.371,49.757-16.958,49.757h-46.722c-4.587,0-8.306-4.773-8.306-10.662V-2.818
		c0-5.889,42.271-38.526,46.857-38.526h7.823c4.587,0,17.305,26.508,17.305,48.746V33.169z"/>
	<polygon fill="#EDF1F1" points="431.937,80.633 176.532,77.662 176.532,54.912 431.937,54.912 	"/>
	<polygon fill="#0A81C4" points="498.521,61.23 176.422,58.713 176.422,-99.615 127.854,-99.615 156.452,-114.487 483.162,-114.487 
		498.521,-91.137 	"/>
	<g>
		<path fill="#A1C845" d="M176.531,75.84c0,0-20.21,0-32.194,0c-25.61-33.041-68.505-2.282-63.313,18.872
			c-5.136,1.235-75.857,0.347-75.857,0.347l1.083-72.333L17.324,6.113l26.739-92.841c0,0,4.186-9.19,10.638-12.418
			c8.306,0,121.72-0.998,121.72-0.998L176.531,75.84z"/>
		<g>
			<path fill="#D2EDF3" d="M156.452,0.037c0,2.2-1.8,4-4,4H34.475c-2.2,0-3.499-1.729-2.887-3.842l24.077-83.081
				c0.612-2.113,2.913-3.842,5.113-3.842h91.673c2.2,0,4,1.8,4,4V0.037z"/>
		</g>
	</g>
	<path fill="#027CAF" d="M253.916-0.536c0,1.72-1.394,3.115-3.114,3.115h-5.406c-1.721,0-3.115-1.395-3.115-3.115v-114.901
		c0-1.721,1.395-3.115,3.115-3.115h5.406c1.721,0,3.114,1.394,3.114,3.115V-0.536z"/>
	<path fill="#027CAF" d="M303.818,0.922c0,1.721-1.395,3.115-3.115,3.115h-5.406c-1.721,0-3.115-1.394-3.115-3.115v-114.9
		c0-1.72,1.395-3.115,3.115-3.115h5.406c1.721,0,3.115,1.395,3.115,3.115V0.922z"/>
	<path fill="#027CAF" d="M360.928,0.922c0,1.721-1.395,3.115-3.115,3.115h-5.406c-1.721,0-3.114-1.394-3.114-3.115v-114.9
		c0-1.72,1.394-3.115,3.114-3.115h5.406c1.721,0,3.115,1.395,3.115,3.115V0.922z"/>
	<path fill="#0A81C4" d="M494.924,105.788l-0.559-24.144l1.042,0.111c1.72,0,3.114-1.463,3.114-3.268v-192.314
		c0-1.805-1.395-3.267-3.114-3.267h-74.892c-1.721,0-3.114,1.462-3.114,3.267v179.56c0,1.52,0.163,6.043,1.24,7.44l-0.013-0.001
		l22.997,49.075l66.45-0.146L494.924,105.788z"/>
	<path fill="#027CAF" d="M195.428,0.922c0,1.721-1.394,3.115-3.115,3.115h-5.406c-1.72,0-3.115-1.394-3.115-3.115v-114.9
		c0-1.72,1.395-3.115,3.115-3.115h5.406c1.721,0,3.115,1.395,3.115,3.115V0.922z"/>
	<path fill="#027CAF" d="M417.401,0.922c0,1.721-1.395,3.115-3.115,3.115h-5.406c-1.721,0-3.114-1.394-3.114-3.115v-114.9
		c0-1.72,1.394-3.115,3.114-3.115h5.406c1.721,0,3.115,1.395,3.115,3.115V0.922z"/>
	<path fill="#027CAF" d="M411.206,18.553c3.422,0,6.194,0.251,6.194,0.561v0.975c0,0.309-2.772,0.561-6.194,0.561h-228.48
		c-3.422,0-6.194-0.251-6.194-0.561v-0.975c0-0.309,2.772-0.561,6.194-0.561H411.206z"/>
	<path fill="#027CAF" d="M519.843,19.611c0,1.72-1.395,3.115-3.115,3.115h-8.998c-1.721,0-3.115-1.395-3.115-3.115v-5.209
		c0-1.72,1.395-3.115,3.115-3.115h8.998c1.721,0,3.115,1.396,3.115,3.115V19.611z"/>
	<path fill="#027CAF" d="M519.843,35.799c0,0.859-1.395,1.557-3.115,1.557h-8.998c-1.721,0-3.115-0.698-3.115-1.557v-2.604
		c0-0.86,1.395-1.558,3.115-1.558h8.998c1.721,0,3.115,0.698,3.115,1.558V35.799z"/>
	<path fill="#CFDCE2" d="M488.693,74.276c0,4.204-3.408,7.612-7.613,7.612l0,0c-4.205,0-7.613-3.408-7.613-7.612V18.901
		c0-4.206,3.408-7.615,7.613-7.615l0,0c4.205,0,7.613,3.409,7.613,7.615V74.276z"/>
	<circle fill="#CFDCE2" stroke="#B6B8B9" stroke-width="0.4" stroke-miterlimit="10" cx="481.08" cy="75.677" r="7.249"/>
	<circle fill="#CFDCE2" stroke="#B6B8B9" stroke-width="0.4" stroke-miterlimit="10" cx="482.119" cy="77.754" r="7.249"/>
	<circle fill="#CFDCE2" stroke="#B6B8B9" stroke-width="0.4" stroke-miterlimit="10" cx="483.157" cy="79.831" r="7.249"/>
	<g>
		<defs>
			<rect id="SVGID_1_" x="184.326" y="62.455" width="195.649" height="13.488"/>
		</defs>
		<clipPath id="SVGID_2_">
			<use xlink:href="#SVGID_1_"  overflow="visible"/>
		</clipPath>
		<g clip-path="url(#SVGID_2_)">
			<g>
				<g>
					<polygon fill="#3F4340" points="192.47,76.717 183.442,76.717 178.128,60.868 186.628,60.868 					"/>
					<polygon fill="#CFDCE2" points="201.234,76.717 192.206,76.717 186.894,60.868 195.393,60.868 					"/>
					<polygon fill="#3F4340" points="209.999,76.717 200.969,76.717 195.658,60.868 204.156,60.868 					"/>
				</g>
				<polygon fill="#CFDCE2" points="218.869,76.717 209.84,76.717 204.528,60.868 213.029,60.868 				"/>
				<polygon fill="#CFDCE2" points="236.398,76.717 227.367,76.717 222.057,60.868 230.556,60.868 				"/>
				<polygon fill="#3F4340" points="227.633,76.717 218.605,76.717 213.292,60.868 221.792,60.868 				"/>
			</g>
			<g>
				<g>
					<polygon fill="#3F4340" points="245.055,76.717 236.025,76.717 230.713,60.868 239.213,60.868 					"/>
					<polygon fill="#CFDCE2" points="253.819,76.717 244.789,76.717 239.479,60.868 247.977,60.868 					"/>
					<polygon fill="#3F4340" points="262.584,76.717 253.553,76.717 248.241,60.868 256.739,60.868 					"/>
				</g>
				<polygon fill="#CFDCE2" points="271.453,76.717 262.426,76.717 257.112,60.868 265.613,60.868 				"/>
				<polygon fill="#CFDCE2" points="288.982,76.717 279.952,76.717 274.642,60.868 283.14,60.868 				"/>
				<polygon fill="#3F4340" points="280.218,76.717 271.189,76.717 265.877,60.868 274.375,60.868 				"/>
			</g>
			<g>
				<g>
					<polygon fill="#3F4340" points="297.804,76.717 288.773,76.717 283.462,60.868 291.96,60.868 					"/>
					<polygon fill="#CFDCE2" points="306.567,76.717 297.539,76.717 292.225,60.868 300.725,60.868 					"/>
					<polygon fill="#3F4340" points="315.331,76.717 306.301,76.717 300.99,60.868 309.489,60.868 					"/>
				</g>
				<polygon fill="#CFDCE2" points="324.203,76.717 315.173,76.717 309.862,60.868 318.359,60.868 				"/>
				<polygon fill="#CFDCE2" points="341.731,76.717 332.702,76.717 327.389,60.868 335.889,60.868 				"/>
				<polygon fill="#3F4340" points="332.967,76.717 323.938,76.717 318.625,60.868 327.124,60.868 				"/>
			</g>
			<g>
				<g>
					<polygon fill="#3F4340" points="350.387,76.717 341.358,76.717 336.046,60.868 344.546,60.868 					"/>
					<polygon fill="#CFDCE2" points="359.15,76.717 350.123,76.717 344.811,60.868 353.31,60.868 					"/>
					<polygon fill="#3F4340" points="367.915,76.717 358.886,76.717 353.574,60.868 362.072,60.868 					"/>
				</g>
				<polygon fill="#CFDCE2" points="376.787,76.717 367.756,76.717 362.445,60.868 370.945,60.868 				"/>
				<polygon fill="#CFDCE2" points="394.314,76.717 385.287,76.717 379.975,60.868 388.472,60.868 				"/>
				<polygon fill="#3F4340" points="385.55,76.717 376.522,76.717 371.21,60.868 379.708,60.868 				"/>
			</g>
		</g>
	</g>
	<g>
		<defs>
			<path id="SVGID_3_" d="M9.319,67.773c-1.721,0-3.115-0.684-3.115-1.527V24.254c0-0.845,1.394-1.529,3.115-1.529h9.014
				c1.721,0,3.115,0.684,3.115,1.529v41.991c0,0.844-1.395,1.527-3.115,1.527H9.319z"/>
		</defs>
		<clipPath id="SVGID_4_">
			<use xlink:href="#SVGID_3_"  overflow="visible"/>
		</clipPath>
		<g clip-path="url(#SVGID_4_)">
			<g>
				<g>
					<polygon fill="#3F4340" points="6.205,28.894 6.205,21.811 21.448,17.644 21.448,24.311 					"/>
					<polygon fill="#CFDCE2" points="6.205,35.77 6.205,28.686 21.448,24.519 21.448,31.186 					"/>
					<polygon fill="#3F4340" points="6.205,42.645 6.205,35.561 21.448,31.395 21.448,38.062 					"/>
				</g>
				<polygon fill="#CFDCE2" points="6.205,49.605 6.205,42.521 21.448,38.354 21.448,45.022 				"/>
				<polygon fill="#CFDCE2" points="6.205,63.355 6.205,56.272 21.448,52.105 21.448,58.772 				"/>
				<polygon fill="#3F4340" points="6.205,56.479 6.205,49.397 21.448,45.229 21.448,51.896 				"/>
			</g>
			<g>
				<polygon fill="#3F4340" points="6.205,70.275 6.205,63.191 21.448,59.024 21.448,65.692 				"/>
				<polygon fill="#CFDCE2" points="6.205,77.152 6.205,70.068 21.448,65.9 21.448,72.568 				"/>
				<polygon fill="#3F4340" points="6.205,84.026 6.205,76.943 21.448,72.775 21.448,79.443 				"/>
			</g>
		</g>
	</g>
	<path fill="#494A49" d="M21.448,96.956c0,1.748-1.091,3.164-2.438,3.164H7.604c-1.347,0-2.438-1.416-2.438-3.164V73.669
		c0-1.747,1.091-3.164,2.438-3.164h11.407c1.346,0,2.438,1.417,2.438,3.164V96.956z"/>
	<path fill="#494A49" d="M114.097,85.313C103.293,87.08,99.222,95.369,100.5,112.34l-91.823-1.999c-1.939,0-3.51-2.944-3.51-6.577
		V84.61c0-3.632,1.571-6.577,3.51-6.577h82.555c1.939,0,3.51,2.945,3.51,6.577L114.097,85.313z"/>
	<path fill="#494A49" d="M176.531,80.606c-26.039-0.576,4.763,1.28-33.249-1.025c-43.244-2.622-43.244,29.74-43.244,29.74
		c-11.074,0-13.918,0.072-17.262,0.032c-3.344-0.043-3.157-11.12-3.157-11.12c-1.298-1.438-0.07-37.006,48.18-40.292h42.754
		c5.436,0.1,5.869,1.038,5.869,2.756L176.531,80.606z"/>
	<polygon opacity="0.2" fill="#CFDCE2" points="21.448,22.726 6.205,21.811 17.922,4.037 154.678,4.037 	"/>
	<path fill="#CFDCE2" d="M455.637,27.053c0,1.72-9.804,12.265-24.948,13.67H234.885c-32.234,0-58.354,0.326-58.354,0.326V20.791
		c0-1.72,67.434-0.235,99.668-0.235l78.91-0.573c53.293,0.808,101.082-0.912,101.082,0.808L455.637,27.053z"/>
	<path fill="#1C9ED9" d="M456.191,23.548c0,1.609-144.614,0.186-180.342,1.417c-3.312,0.113-9.344,0-10.891,3.119l-2.779,5.2
		c-32.234,0-85.647,0-85.647,0l-0.001-12.777c0-1.759,67.434-0.24,99.668-0.24l78.91-0.586
		c53.293,0.826,101.082-0.933,101.082,0.826V23.548z"/>
	<g opacity="0.8">
		<g>
			<path fill="#CFDCE2" stroke="#184CA0" stroke-width="0.5" stroke-miterlimit="10" d="M468.835-37.274l-0.006-2.927l-10.023,8.374
				l10.065,8.329l-0.008-2.994l15.99-0.386l-0.063-0.144c-0.931-1.66-3.351-5.98-5.768-10.289L468.835-37.274z"/>
			<path fill="#1C9ED9" stroke="#184CA0" stroke-width="0.5" stroke-miterlimit="10" d="M483.596-53.236
				c-7.297,3.463-10.667,5.062-10.667,5.062s3.039,5.42,6.094,10.863c2.417,4.309,4.837,8.629,5.768,10.289
				c0.039,0.067,0.076,0.132,0.108,0.191c3.043-1.445,6.32-3.857,7.351-7.53C493.188-37.701,486.734-47.639,483.596-53.236z"/>
		</g>
		<path fill="#CFDCE2" stroke="#184CA0" stroke-width="0.5" stroke-miterlimit="10" d="M465.108-58.881l-2.669,1.594l13.082,3.204
			l2.148-12.299l-2.731,1.633l-9.023-12.151l-0.101,0.129c-1.014,1.623-3.644,5.836-6.266,10.039L465.108-58.881z"/>
		<path fill="#1C9ED9" stroke="#184CA0" stroke-width="0.5" stroke-miterlimit="10" d="M459.549-66.732
			c2.622-4.203,5.252-8.417,6.266-10.039c0.04-0.066,0.081-0.132,0.118-0.19c-2.972-1.567-6.954-2.791-10.866-1.596
			c-3.56,1.087-9.133,11.466-12.543,16.929c7.122,3.76,10.408,5.498,10.408,5.498S456.235-61.421,459.549-66.732z"/>
		<g>
			<path fill="#CFDCE2" stroke="#184CA0" stroke-width="0.5" stroke-miterlimit="10" d="M442.848-44.378l2.832,1.334l-3.508-12.03
				l-12.655,4.422l2.896,1.364l-6.945,13.256l0.171,0.013c2.028-0.001,7.314-0.004,12.584-0.009L442.848-44.378z"/>
			<path fill="#1C9ED9" stroke="#184CA0" stroke-width="0.5" stroke-miterlimit="10" d="M451.52-25
				c-0.008-7.554-0.01-11.042-0.01-11.042s-6.628,0.006-13.287,0.013c-5.27,0.005-10.556,0.008-12.584,0.009
				c-0.084,0.002-0.162,0.002-0.235,0.002c0.006,3.149,0.836,6.936,3.913,9.46C432.118-24.263,444.673-24.993,451.52-25z"/>
		</g>
	</g>
	<g>
		<path fill="#CFDCE2" d="M188.938,22.343c-2.038,5.137-3.374,9.697-4.005,13.684l-5.014,0.872l2.618-10.175l-3.879,0.374
			l0.819-3.737L188.938,22.343z"/>
		<path fill="#CFDCE2" d="M201.397,25.853c-2.187,0.056-4.457,0.118-6.812,0.187c-0.063,0.208-0.158,0.513-0.285,0.915
			c4.648,0.055,7.055,0.976,7.224,2.761c0.104,0.817-0.264,1.704-1.105,2.659c-0.651,0.789-1.514,1.53-2.585,2.222
			c-2.335,1.51-4.5,2.264-6.497,2.264c-1.324,0-2.313-0.458-2.964-1.371c-0.379-0.499-0.547-1.197-0.506-2.098
			c-0.02-0.512,0.032-1.073,0.159-1.682l5.266,0.229c-0.125,0.29-0.189,0.526-0.189,0.706c0,0.25,0.146,0.375,0.443,0.375
			c0.104,0,0.22-0.015,0.347-0.042c0.756-0.152,1.397-0.478,1.922-0.976c0.231-0.25,0.348-0.491,0.348-0.727
			c0-0.249-0.127-0.498-0.379-0.748c-0.378-0.333-1.344-0.498-2.901-0.498c-0.693,0-1.493,0.034-2.397,0.104l-1.86,0.249
			c0.505-1.938,1.282-4.513,2.333-7.725l11.038-0.498L201.397,25.853z"/>
		<path fill="#CFDCE2" d="M215.684,28.22c1.744,0.651,2.617,1.633,2.617,2.948c0,0.277-0.051,0.568-0.158,0.872
			c-0.439,1.343-1.63,2.512-3.564,3.509c-1.849,0.955-3.856,1.481-6.023,1.579c-2.229,0.11-3.995-0.257-5.299-1.101
			c-0.924-0.608-1.387-1.363-1.387-2.263c-0.021-1.135,0.609-2.229,1.892-3.281c0.883-0.733,1.978-1.342,3.28-1.827
			c-1.22-0.526-1.829-1.218-1.829-2.076c-0.021-0.221,0.02-0.458,0.127-0.706c0.356-1.108,1.376-2.056,3.058-2.845
			c1.558-0.734,3.239-1.143,5.046-1.225c1.871-0.07,3.375,0.228,4.512,0.893c0.841,0.512,1.271,1.135,1.291,1.869
			c-0.02,0.208-0.074,0.43-0.156,0.665C218.732,26.393,217.596,27.39,215.684,28.22z M210.795,30.379
			c-0.84,0.042-1.651,0.257-2.428,0.644c-0.799,0.443-1.189,0.941-1.167,1.495c-0.022,0.443,0.252,0.775,0.82,0.997
			c0.462,0.181,1.05,0.256,1.764,0.229c0.863-0.042,1.673-0.256,2.429-0.644c0.821-0.429,1.22-0.921,1.2-1.474
			c0.02-0.443-0.232-0.769-0.757-0.977C212.129,30.441,211.51,30.352,210.795,30.379z M212.119,25.417
			c-0.588,0.028-1.141,0.176-1.655,0.446c-0.517,0.271-0.773,0.585-0.773,0.945c0,0.582,0.577,0.845,1.734,0.789
			c0.569-0.027,1.109-0.169,1.625-0.425c0.514-0.256,0.772-0.572,0.772-0.945c0-0.263-0.18-0.47-0.537-0.624
			C212.928,25.451,212.54,25.389,212.119,25.417z"/>
		<path fill="#CFDCE2" d="M230.947,21.471c2.124,0,3.615,0.776,4.479,2.326c0.462,0.803,0.694,1.681,0.694,2.637
			c0,0.927-0.211,1.923-0.632,2.99c-0.736,1.841-2.008,3.537-3.815,5.087c-2.229,1.897-4.571,2.845-7.034,2.845
			c-2.145,0-3.669-0.774-4.571-2.326c-0.422-0.761-0.632-1.612-0.632-2.554c0-0.941,0.221-1.959,0.662-3.052
			c0.736-1.841,1.998-3.538,3.786-5.088C226.09,22.426,228.444,21.471,230.947,21.471z M229.875,26.351
			c-1.115,0-2.229,0.595-3.343,1.786c-0.944,0.928-1.588,1.841-1.923,2.741c-0.189,0.472-0.285,0.894-0.285,1.268
			c0,0.539,0.201,0.982,0.6,1.328c0.463,0.374,1.104,0.561,1.924,0.561c1.113,0,2.124-0.387,3.027-1.163
			c0.715-0.608,1.23-1.335,1.545-2.18c0.38-0.982,0.453-1.952,0.223-2.907C231.409,26.829,230.821,26.351,229.875,26.351z"/>
	</g>
</g>
</svg>
