<?xml version="1.0" encoding="utf-8"?>
<!-- Generator: Adobe Illustrator 16.0.0, SVG Export Plug-In . SVG Version: 6.00 Build 0)  -->
<!DOCTYPE svg PUBLIC "-//W3C//DTD SVG 1.1//EN" "http://www.w3.org/Graphics/SVG/1.1/DTD/svg11.dtd">
<svg version="1.1" id="Layer_3_1_" xmlns="http://www.w3.org/2000/svg" xmlns:xlink="http://www.w3.org/1999/xlink" x="0px" y="0px"
	 width="450px" height="122.8px" viewBox="0 0 450 122.8" enable-background="new 0 0 450 122.8" xml:space="preserve">
<g id="Layer_1_2_">
	<g>
		<path d="M127.607,7.717L141.5,4.3h14.341H168.5H179h65.5l67.5,7c0,0,35.5,28.1,46,34c10.5,5.9,49,11.6,54,12.5
			c11.7,2.2,19.8,4.5,24,7.5c5,3.5,5,7.5,5,7.5l5,41.5c0,1.4-3.6,3-5,3h-77c0,0,1.6,5.5-3,5.5s-196.1,0-198.5,0
			c-7,0-3.93-5.531-3.93-5.531l-68.066,0.125C81,115.4,83.499,90.3,83.499,88.9L84.5,57.4l3-14l17-18.5L127.607,7.717z"/>
	</g>
</g>
</svg>
